<?xml version="1.0" encoding="utf-8"?>
<!-- Generator: Adobe Illustrator 16.0.0, SVG Export Plug-In . SVG Version: 6.00 Build 0)  -->
<!DOCTYPE svg PUBLIC "-//W3C//DTD SVG 1.1//EN" "http://www.w3.org/Graphics/SVG/1.1/DTD/svg11.dtd">
<svg version="1.1" xmlns="http://www.w3.org/2000/svg" xmlns:xlink="http://www.w3.org/1999/xlink" x="0px" y="0px" width="100px"
	 height="80px" viewBox="0 0 100 80" enable-background="new 0 0 100 80" xml:space="preserve">
<g id="圖層_1" display="none">
	<g display="inline">
		<path fill="#24A2DC" d="M78.43,35.346c2.284-1.529,3.788-4.132,3.788-7.088c0-4.708-3.816-8.525-8.525-8.525
			s-8.527,3.817-8.527,8.525c0,2.956,1.506,5.559,3.789,7.088c-3.601,1.223-6.502,3.791-8.004,7.052
			c3.64,2.112,6.461,5.316,7.942,9.124h17.944c0.456-1.279,0.712-2.642,0.712-4.063C87.549,41.885,83.745,37.15,78.43,35.346"/>
		<path fill="#24A2DC" d="M38.426,42.384c-1.503-3.255-4.401-5.817-7.996-7.038c2.283-1.529,3.788-4.133,3.788-7.088
			c0-4.709-3.817-8.525-8.526-8.525s-8.526,3.816-8.526,8.525c0,2.955,1.504,5.559,3.788,7.088
			c-5.316,1.805-9.119,6.538-9.119,12.113c0,1.42,0.256,2.784,0.712,4.063h17.914C31.945,47.705,34.777,44.497,38.426,42.384"/>
		<path fill="#24A2DC" d="M56.188,41.754c3.18-2.129,5.273-5.752,5.273-9.866c0-6.555-5.313-11.868-11.869-11.868
			c-6.555,0-11.868,5.313-11.868,11.868c0,4.114,2.094,7.737,5.273,9.866c-7.4,2.511-12.694,9.102-12.694,16.861
			c0,1.978,0.357,3.875,0.991,5.654h36.596c0.634-1.779,0.99-3.677,0.99-5.654C68.882,50.855,63.589,44.265,56.188,41.754"/>
	</g>
</g>
<g id="圖層_2" display="none">
	<path display="inline" fill="#24A2DC" d="M72.354,16.854H28.063c-2.303,0-4.188,1.885-4.188,4.188v28.622
		c0,2.305,1.885,4.189,4.188,4.189h44.291c2.303,0,4.188-1.885,4.188-4.189V21.043C76.541,18.739,74.656,16.854,72.354,16.854
		 M71.374,49.271H29.042V21.438h42.333V49.271z"/>
	<path display="inline" fill="#24A2DC" d="M83.574,57.313H17.091c-1.334,0-2.425,1.091-2.425,2.425v2.983
		c0,1.334,1.091,2.425,2.425,2.425h66.483c1.334,0,2.425-1.091,2.425-2.425v-2.983C85.999,58.403,84.908,57.313,83.574,57.313
		 M57.083,62.313h-13.5v-1.833h13.5V62.313z"/>
</g>
<g id="圖層_3">
	<path fill-rule="evenodd" clip-rule="evenodd" fill="#24A2DC" d="M18.327,16.783c20.509,0,40.874,0.083,61.368,0.083
		c0,6.094,0,2.665,0,8.804c-1.116,0-2.155,0-3.341,0c0-5.225,0-0.382,0-5.679c-18.169,0-36.198-0.063-54.352-0.063
		c0,17.491,0,23.927,0,41.521c18.042,0,36.035-0.083,54.241-0.083c0-5.219,0-9.212,0-14.489c1.252,0,2.294,0,3.463,0
		c0,6.067,0,12.14,0,18.268c-20.47,0-40.875,0-61.378,0C18.327,45.893,18.327,36.115,18.327,16.783z"/>
	<path fill-rule="evenodd" clip-rule="evenodd" fill="#24A2DC" d="M25.816,31.514c0-2.194,0-4.271,0-6.43
		c14.794,0,29.526,0,44.336,0c0,2.16,0,4.263,0,6.43C55.357,31.514,40.666,31.514,25.816,31.514z"/>
	<path fill-rule="evenodd" clip-rule="evenodd" fill="#24A2DC" d="M25.844,39.614c0-1.343,0-2.541,0-3.815
		c12.196,0,24.32,0,36.517,0c0,1.293,0,2.49,0,3.815C50.197,39.614,38.075,39.614,25.844,39.614z"/>
	<path fill-rule="evenodd" clip-rule="evenodd" fill="#24A2DC" d="M52.03,43.636c0,1.318,0,2.514,0,3.829c-8.734,0-17.44,0-26.214,0
		c0-1.238,0-2.473,0-3.829C34.514,43.636,43.218,43.636,52.03,43.636z"/>
	<g>
		<path fill-rule="evenodd" clip-rule="evenodd" fill="#24A2DC" d="M58.969,53.222c0.866-2.417,1.663-4.665,2.488-6.905
			c0.114-0.309,0.324-0.613,0.569-0.837c4.942-4.549,9.898-9.085,14.851-13.622c0.083-0.075,0.184-0.13,0.326-0.229
			c1.572,1.907,3.141,3.807,4.817,5.838c-0.983,0.926-2.099,1.994-3.235,3.04c-3.734,3.438-7.465,6.879-11.237,10.278
			c-0.507,0.456-1.196,0.809-1.86,0.974C63.518,52.293,61.318,52.719,58.969,53.222z"/>
		<path fill-rule="evenodd" clip-rule="evenodd" fill="#24A2DC" d="M87.999,32.251c-1.085,0.931-2.181,1.871-3.33,2.855
			c-1.6-1.894-3.208-3.799-4.859-5.754c1.088-0.899,2.229-1.842,3.382-2.796C84.762,28.418,86.377,30.328,87.999,32.251z"/>
	</g>
</g>
</svg>
