<?xml version="1.0" encoding="utf-8"?>
<!-- Generator: Adobe Illustrator 16.0.0, SVG Export Plug-In . SVG Version: 6.00 Build 0)  -->
<!DOCTYPE svg PUBLIC "-//W3C//DTD SVG 1.1//EN" "http://www.w3.org/Graphics/SVG/1.1/DTD/svg11.dtd">
<svg version="1.1" xmlns="http://www.w3.org/2000/svg" xmlns:xlink="http://www.w3.org/1999/xlink" x="0px" y="0px"
	 width="152.721px" height="125.86px" viewBox="0 0 152.721 125.86" enable-background="new 0 0 152.721 125.86"
	 xml:space="preserve">
<g id="bg">
	<line fill="none" stroke="#602C88" stroke-miterlimit="10" x1="7.055" y1="0" x2="7.055" y2="125.86"/>
	<line fill="none" stroke="#602C88" stroke-miterlimit="10" x1="145.962" y1="0" x2="145.962" y2="125.86"/>
	<line fill="none" stroke="#602C88" stroke-miterlimit="10" x1="0" y1="6.523" x2="152.721" y2="6.523"/>
	<line fill="none" stroke="#602C88" stroke-miterlimit="10" x1="0" y1="118.298" x2="152.721" y2="118.298"/>
</g>
<g id="圖層_1" display="none">
	<g display="inline">
		<rect x="66.752" y="29.706" fill="#24A2DC" width="19.7" height="9.851"/>
		<rect x="22.248" y="59.279" fill="#24A2DC" width="20.053" height="9.851"/>
		<rect x="22.248" y="73.527" fill="#24A2DC" width="20.053" height="9.851"/>
		<rect x="46.698" y="59.279" fill="#24A2DC" width="20.053" height="9.851"/>
		<rect x="46.698" y="73.527" fill="#24A2DC" width="20.053" height="9.851"/>
		<rect x="46.698" y="88.303" fill="#24A2DC" width="20.053" height="9.852"/>
		<rect x="71.854" y="59.279" fill="#24A2DC" width="20.052" height="9.851"/>
		<rect x="71.854" y="73.527" fill="#24A2DC" width="20.052" height="9.851"/>
		<rect x="96.831" y="59.279" fill="#24A2DC" width="20.053" height="9.851"/>
		<rect x="41.597" y="44.482" fill="#283586" width="20.054" height="9.851"/>
		<rect x="16.663" y="44.482" fill="#283586" width="20.053" height="9.851"/>
		<rect x="66.4" y="44.482" fill="#283586" width="20.052" height="9.851"/>
		<rect x="91.202" y="44.482" fill="#283586" width="20.053" height="9.851"/>
		<rect x="116.005" y="44.482" fill="#283586" width="20.053" height="9.851"/>
		<line fill="none" stroke="#283586" stroke-miterlimit="10" x1="76.602" y1="40.151" x2="76.602" y2="44.109"/>
		<polyline fill="none" stroke="#283586" stroke-miterlimit="10" points="26.689,44.108 26.689,42.13 126.515,42.13 126.515,44.108 
					"/>
		<line fill="none" stroke="#283586" stroke-miterlimit="10" x1="51.624" y1="44.108" x2="51.624" y2="42.13"/>
		<line fill="none" stroke="#283586" stroke-miterlimit="10" x1="101.646" y1="44.108" x2="101.646" y2="42.13"/>
		<polyline fill="none" stroke="#24A2DC" stroke-miterlimit="10" points="18.598,55.059 18.598,78.74 21.434,78.74 		"/>
		<line fill="none" stroke="#24A2DC" stroke-miterlimit="10" x1="18.598" y1="64.204" x2="21.434" y2="64.204"/>
		<polyline fill="none" stroke="#24A2DC" stroke-miterlimit="10" points="43.532,55.059 43.532,93.229 46.039,93.229 		"/>
		<line fill="none" stroke="#24A2DC" stroke-miterlimit="10" x1="43.532" y1="64.063" x2="46.434" y2="64.063"/>
		<line fill="none" stroke="#24A2DC" stroke-miterlimit="10" x1="43.532" y1="78.696" x2="46.434" y2="78.696"/>
		<polyline fill="none" stroke="#24A2DC" stroke-miterlimit="10" points="68.532,55.059 68.532,78.696 71.172,78.696 		"/>
		<line fill="none" stroke="#24A2DC" stroke-miterlimit="10" x1="68.532" y1="64.063" x2="71.172" y2="64.063"/>
		<polyline fill="none" stroke="#24A2DC" stroke-miterlimit="10" points="93.401,55.059 93.401,64.063 96.04,64.063 		"/>
	</g>
</g>
<g id="圖層_2" display="none">
	<g display="inline">
		<path fill="#24A2DC" d="M116.125,75.768c0,12.324-9.99,22.314-22.314,22.314s-22.315-9.99-22.315-22.314
			c0-12.324,9.991-22.314,22.315-22.314S116.125,63.444,116.125,75.768"/>
		<path fill="#24A2DC" d="M81.225,75.768c0,12.324-9.991,22.314-22.314,22.314c-12.324,0-22.314-9.99-22.314-22.314
			c0-12.324,9.991-22.314,22.314-22.314C71.234,53.454,81.225,63.444,81.225,75.768"/>
		<path fill="#24A2DC" d="M98.451,50.093c0,12.324-9.99,22.313-22.314,22.313c-12.324,0-22.314-9.989-22.314-22.313
			s9.99-22.314,22.314-22.314C88.461,27.779,98.451,37.769,98.451,50.093"/>
		<path fill="#283586" d="M71.821,71.986c1.397,0.273,2.84,0.422,4.316,0.422c11.035,0,20.193-8.012,21.99-18.535
			c-1.398-0.273-2.84-0.421-4.316-0.421C82.775,53.453,73.619,61.464,71.821,71.986"/>
		<path fill="#283586" d="M71.926,76.197c0,5.258,1.823,10.086,4.865,13.9c3.041-3.814,4.865-8.643,4.865-13.9
			c0-5.256-1.824-10.086-4.865-13.899C73.75,66.111,71.926,70.941,71.926,76.197"/>
		<path fill="#283586" d="M54.165,53.963c1.834,10.478,10.97,18.445,21.973,18.445c1.628,0,3.216-0.18,4.746-0.512
			c-1.832-10.478-10.97-18.444-21.972-18.444C57.282,53.453,55.694,53.632,54.165,53.963"/>
		<path fill="#24A2DC" d="M72.555,72.279c1.251,0.152,2.529,0.209,3.831,0.145c1.627-0.08,3.204-0.338,4.715-0.744
			c-0.793-3.498-2.414-6.656-4.618-9.302C74.431,65.258,73.053,68.637,72.555,72.279"/>
	</g>
</g>
<g id="圖層_4" display="none">
	<g display="inline">
		<rect x="24.786" y="38.992" fill="#24A2DC" width="23.085" height="16.999"/>
		<rect x="51.474" y="38.992" fill="#24A2DC" width="23.085" height="16.999"/>
		<rect x="78.162" y="38.992" fill="#24A2DC" width="23.086" height="16.999"/>
		<rect x="104.85" y="38.992" fill="#24A2DC" width="23.086" height="16.999"/>
		<rect x="24.786" y="59.884" fill="#283586" width="37.608" height="37.607"/>
		<rect x="24.786" y="28.369" fill="#283586" width="23.085" height="9.406"/>
		<rect x="51.474" y="28.369" fill="#283586" width="23.085" height="9.406"/>
		<rect x="70.45" y="70.929" fill="#24A2DC" width="57.486" height="26.469"/>
		<rect x="70.45" y="60.306" fill="#283586" width="57.486" height="9.406"/>
		<rect x="78.162" y="28.369" fill="#283586" width="23.086" height="9.406"/>
		<rect x="104.85" y="28.369" fill="#283586" width="23.086" height="9.406"/>
		<path fill="#24A2DC" d="M57.269,76.188c0-7.574-6.124-13.713-13.679-13.713c-7.554,0-13.678,6.139-13.678,13.713
			c0,4.688,2.347,8.818,5.924,11.293l-5.038,10.01h25.584l-5.037-10.01C54.921,85.007,57.269,80.876,57.269,76.188"/>
	</g>
</g>
<g id="圖層_5" display="none">
	<g display="inline">
		<path fill="#24A2DC" d="M75.261,100.747h18.877c0,0,4.611-8.977,5.621-15.461c1.009-6.484,1.709-20.533,1.009-22.581
			c-0.667-1.949-0.479-2.293-2.595-2.349c-0.928-0.023-2.109,0.009-2.594,2.349c-0.313,1.517,0.139,4.232-0.576,4.713
			c-0.957,0.642-2.306,1.153-2.306-1.585s0.216-6.972-0.144-7.926c-0.371-0.985-2.307-2.738-3.748-1.729
			c-1.44,1.009-1.569,3.599-1.584,5.765c-0.016,2.429-0.235,3.306-1.152,3.313c-1.05,0.01-1.73,0.146-1.73-4.755
			c0-4.899,0.578-6.917-1.584-7.349c-2.162-0.433-3.746,0.288-3.892,1.44c-0.144,1.153-0.216,9.042-0.216,9.042
			s0.138,0.945-0.576,1.369c-0.868,0.516-1.908,0.36-1.873-1.117c0.036-1.477,0.072-24.856,0.072-24.856s-0.434-3.458-3.314-3.17
			c-2.883,0.287-3.459,2.161-3.459,2.882c0,0.72,0.576,35.881,0.576,35.881s-2.839-5.055-3.89-6.328
			c-1.483-1.795-4.035-3.471-5.62-3.471s-4.323,0.288-4.9,1.729c-0.576,1.441-0.326,3.254,0.865,3.747
			c1.57,0.649,2.882,0.865,4.035,2.45c1.152,1.585,3.314,5.62,4.035,8.069c0.72,2.449,2.16,5.476,2.882,8.79
			c0.72,3.314,2.017,7.061,2.882,7.781C71.227,98.111,73.677,100.789,75.261,100.747"/>
		<path fill="none" stroke="#283586" stroke-width="3" stroke-miterlimit="10" d="M84.706,53.729
			c2.08-2.956,3.313-6.552,3.313-10.441c0-10.037-8.137-18.174-18.174-18.174c-10.038,0-18.174,8.137-18.174,18.174
			c0,9.53,7.34,17.335,16.674,18.099"/>
	</g>
</g>
<g id="圖層_6" display="none">
	<g display="inline">
		<path fill="#24A2DC" d="M42.551,56.331H25.125c-2.227,0-4.049,1.822-4.049,4.049V90.98c0,2.227,1.822,4.049,4.049,4.049h17.427
			c2.227,0,4.049-1.822,4.049-4.049V60.38C46.601,58.153,44.778,56.331,42.551,56.331 M44.188,88.764H23.538V59.766h20.651V88.764z"
			/>
		<rect x="31.702" y="89.561" fill="#283586" width="3.975" height="4.252"/>
		<path fill="#24A2DC" d="M125.001,30.831H60.996c-3.654,0-6.644,2.99-6.644,6.645v41.25c0,3.655,2.989,6.645,6.644,6.645h64.005
			c3.654,0,6.645-2.989,6.645-6.645v-41.25C131.646,33.821,128.655,30.831,125.001,30.831 M128.355,72.17
			c0,1.462-1.196,2.657-2.658,2.657H60.582c-1.462,0-2.658-1.195-2.658-2.657V36.693c0-1.461,1.196-2.657,2.658-2.657h65.115
			c1.462,0,2.658,1.196,2.658,2.657V72.17z"/>
		<path fill="#24A2DC" d="M98.318,95.029H87.548c-3.654,0-10.228,0-6.644-6.644l4.667-8.915c0-3.655,14.341-3.378,14.341,0.276
			l5.05,8.639C108.882,95.029,101.972,95.029,98.318,95.029"/>
	</g>
</g>
<g id="圖層_7">
	
		<text transform="matrix(1 0 0 1 41.4922 75.6279)" fill="#283586" font-family="'AbadiMT-CondensedExtraBold'" font-size="42.9168">&lt;</text>
	
		<text transform="matrix(1 0 0 1 70.1172 75.6279)" fill="#24A2DC" font-family="'AbadiMT-CondensedExtraBold'" font-size="42.9168">/</text>
	
		<text transform="matrix(1 0 0 1 86.2119 75.6279)" fill="#283586" font-family="'AbadiMT-CondensedExtraBold'" font-size="42.9168">&gt;</text>
</g>
</svg>
